<svg width="20" height="20" viewBox="0 0 20 20" fill="none" xmlns="http://www.w3.org/2000/svg">
<path d="M9.96986 8.45697C11.8449 8.45697 13.365 6.93691 13.365 5.06182C13.365 3.18673 11.8449 1.66667 9.96986 1.66667C8.09477 1.66667 6.57471 3.18673 6.57471 5.06182C6.57471 6.93691 8.09477 8.45697 9.96986 8.45697Z" stroke="#F5F5F5" stroke-width="1.5" stroke-linecap="round" stroke-linejoin="round"/>
<path fill-rule="evenodd" clip-rule="evenodd" d="M2.50002 14.9044C2.49869 14.4889 2.57614 14.0784 2.72649 13.7041C3.19832 12.5717 4.52886 11.9714 5.63293 11.6997C6.42918 11.4958 7.23643 11.3595 8.04866 11.292C9.55242 11.1335 11.0649 11.1335 12.5688 11.292C13.3809 11.3603 14.1881 11.4965 14.9845 11.6997C16.0885 11.9714 17.4191 12.515 17.8909 13.7041C18.1933 14.4672 18.1933 15.3531 17.8909 16.1162C17.4191 17.3053 16.0885 17.8488 14.9845 18.1093C14.1892 18.3216 13.3816 18.4617 12.5688 18.5283C11.3448 18.6528 10.1151 18.6755 8.8885 18.5962C8.60542 18.5962 8.33176 18.5962 8.04866 18.5283C7.23883 18.4625 6.43438 18.3224 5.64236 18.1093C4.52886 17.8488 3.20775 17.3053 2.72649 16.1162C2.57691 15.7375 2.49954 15.3235 2.50002 14.9044Z" stroke="#F5F5F5" stroke-width="1.5" stroke-linecap="round" stroke-linejoin="round"/>
</svg>
