<svg width="20" height="20" viewBox="0 0 20 20" fill="none" xmlns="http://www.w3.org/2000/svg">
<path d="M3.31465 8.20001C3.34816 7.78235 3.53777 7.39263 3.8457 7.10848C4.15364 6.82432 4.55731 6.66659 4.97631 6.66667H15.0247C15.4437 6.66659 15.8473 6.82432 16.1552 7.10848C16.4632 7.39263 16.6528 7.78235 16.6863 8.20001L17.3555 16.5333C17.3739 16.7627 17.3446 16.9933 17.2695 17.2108C17.1944 17.4283 17.0751 17.6278 16.9191 17.7968C16.7631 17.966 16.5737 18.1009 16.363 18.1933C16.1522 18.2856 15.9247 18.3333 15.6947 18.3333H4.30631C4.07625 18.3333 3.84869 18.2856 3.63796 18.1933C3.42724 18.1009 3.23791 17.966 3.0819 17.7968C2.92588 17.6278 2.80656 17.4283 2.73145 17.2108C2.65635 16.9933 2.62707 16.7627 2.64548 16.5333L3.31465 8.20001Z" stroke="#F5F5F5" stroke-width="1.5" stroke-linecap="round" stroke-linejoin="round"/>
<path d="M13.3332 9.16667V5.00001C13.3332 4.11595 12.982 3.26811 12.3568 2.64298C11.7318 2.01786 10.8839 1.66667 9.99984 1.66667C9.11575 1.66667 8.26794 2.01786 7.64281 2.64298C7.0177 3.26811 6.6665 4.11595 6.6665 5.00001V9.16667" stroke="#F5F5F5" stroke-width="1.5" stroke-linecap="round" stroke-linejoin="round"/>
</svg>
