<svg width="20" height="20" viewBox="0 0 20 20" fill="none" xmlns="http://www.w3.org/2000/svg">
<g clip-path="url(#clip0_210_186)">
<path d="M9.99984 18.3333C14.6023 18.3333 18.3332 14.6025 18.3332 10C18.3332 5.39751 14.6023 1.66667 9.99984 1.66667C5.39734 1.66667 1.6665 5.39751 1.6665 10C1.6665 14.6025 5.39734 18.3333 9.99984 18.3333Z" stroke="#F5F5F5" stroke-width="1.5" stroke-linecap="round" stroke-linejoin="round"/>
<path d="M1.6665 10H18.3332" stroke="#F5F5F5" stroke-width="1.5" stroke-linecap="round" stroke-linejoin="round"/>
<path d="M9.99984 18.3333C11.8407 18.3333 13.3332 14.6025 13.3332 10C13.3332 5.39751 11.8407 1.66667 9.99984 1.66667C8.159 1.66667 6.6665 5.39751 6.6665 10C6.6665 14.6025 8.159 18.3333 9.99984 18.3333Z" stroke="#F5F5F5" stroke-width="1.5" stroke-linecap="round" stroke-linejoin="round"/>
<path d="M4.10742 4.22581C4.88037 5.00081 5.79886 5.6154 6.81009 6.03428C7.82132 6.45316 8.90533 6.66807 9.99991 6.66665C11.0945 6.66807 12.1785 6.45316 13.1897 6.03428C14.201 5.6154 15.1195 5.00081 15.8924 4.22581M15.8924 15.7742C15.1195 14.9992 14.201 14.3846 13.1897 13.9657C12.1785 13.5468 11.0945 13.3319 9.99991 13.3333C8.90533 13.3319 7.82132 13.5468 6.81009 13.9657C5.79886 14.3846 4.88037 14.9992 4.10742 15.7742" stroke="#F5F5F5" stroke-width="1.5" stroke-linecap="round" stroke-linejoin="round"/>
</g>
<defs>
<clipPath id="clip0_210_186">
<rect width="20" height="20" fill="white"/>
</clipPath>
</defs>
</svg>
